ffmpeg started on 2016-12-02 at 04:38:21
Report written to "Output/x264/results/ffmpeg/old_town_cross_2160p50slower5000k.log"
Command line:
Tools/ffmpeg/ffmpeg -benchmark -y -i Input/y4m/old_town_cross_2160p50.y4m -c:v libx264 -preset slower -b:v 5000k -an Output/x264/encoded/old_town_cross_2160p50slower5000k.mkv
ffmpeg version N-82227-gdb23fde Copyright (c) 2000-2016 the FFmpeg developers
  built with gcc 5.4.0 (Ubuntu 5.4.0-6ubuntu1~16.04.2) 20160609
  configuration: --prefix=/home/jaroslav/ffmpeg_build --pkg-config-flags=--static --extra-cflags=-I/home/jaroslav/ffmpeg_build/include --extra-ldflags=-L/home/jaroslav/ffmpeg_build/lib --bindir=/home/jaroslav/bin --enable-gpl --enable-libass --enable-libfdk-aac --enable-libfreetype --enable-libmp3lame --enable-libopus --enable-libtheora --enable-libvorbis --enable-libvpx --enable-libx264 --enable-libx265 --enable-nvenc --enable-libmfx --enable-libxvid --enable-libgsm --enable-libopencore-amrnb --enable-version3 --enable-nonfree
  libavutil      55. 35.100 / 55. 35.100
  libavcodec     57. 66.101 / 57. 66.101
  libavformat    57. 57.100 / 57. 57.100
  libavdevice    57.  2.100 / 57.  2.100
  libavfilter     6. 66.100 /  6. 66.100
  libswscale      4.  3.100 /  4.  3.100
  libswresample   2.  4.100 /  2.  4.100
  libpostproc    54.  2.100 / 54.  2.100
Input #0, yuv4mpegpipe, from 'Input/y4m/old_town_cross_2160p50.y4m':
  Duration: 00:00:10.00, start: 0.000000, bitrate: 4976642 kb/s
    Stream #0:0: Video: rawvideo (I420 / 0x30323449), yuv420p(progressive), 3840x2160, SAR 1:1 DAR 16:9, 50 fps, 50 tbr, 50 tbn, 50 tbc
[libx264 @ 0x343d120] using SAR=1/1
[libx264 @ 0x343d120] DPB size (8 frames, 259200 mbs) > level limit (5 frames, 184320 mbs)
[libx264 @ 0x343d120] using cpu capabilities: MMX2 SSE2Fast SSSE3 SSE4.2 AVX FMA3 AVX2 LZCNT BMI2
[libx264 @ 0x343d120] profile High, level 5.2
[libx264 @ 0x343d120] 264 - core 148 - H.264/MPEG-4 AVC codec - Copyleft 2003-2016 - http://www.videolan.org/x264.html - options: cabac=1 ref=8 deblock=1:0:0 analyse=0x3:0x133 me=umh subme=9 psy=1 psy_rd=1.00:0.00 mixed_ref=1 me_range=16 chroma_me=1 trellis=2 8x8dct=1 cqm=0 deadzone=21,11 fast_pskip=1 chroma_qp_offset=-2 threads=6 lookahead_threads=1 sliced_threads=0 nr=0 decimate=1 interlaced=0 bluray_compat=0 constrained_intra=0 bframes=3 b_pyramid=2 b_adapt=2 b_bias=0 direct=3 weightb=1 open_gop=0 weightp=2 keyint=250 keyint_min=25 scenecut=40 intra_refresh=0 rc_lookahead=60 rc=abr mbtree=1 bitrate=5000 ratetol=1.0 qcomp=0.60 qpmin=0 qpmax=69 qpstep=4 ip_ratio=1.40 aq=1:1.00
Output #0, matroska, to 'Output/x264/encoded/old_town_cross_2160p50slower5000k.mkv':
  Metadata:
    encoder         : Lavf57.57.100
    Stream #0:0: Video: h264 (libx264) (H264 / 0x34363248), yuv420p, 3840x2160 [SAR 1:1 DAR 16:9], q=-1--1, 5000 kb/s, 50 fps, 1k tbn, 50 tbc
    Metadata:
      encoder         : Lavc57.66.101 libx264
    Side data:
      cpb: bitrate max/min/avg: 0/0/5000000 buffer size: 0 vbv_delay: -1
Stream mapping:
  Stream #0:0 -> #0:0 (rawvideo (native) -> h264 (libx264))
Press [q] to stop, [?] for help
frame=   62 fps=0.0 q=0.0 size=       0kB time=00:00:00.00 bitrate=N/A speed=   0x    frame=   67 fps= 17 q=0.0 size=       0kB time=00:00:00.00 bitrate=N/A speed=   0x    frame=   72 fps= 16 q=40.0 size=       1kB time=-00:00:00.01 bitrate=N/A speed=N/A    frame=   77 fps= 15 q=46.0 size=       1kB time=00:00:00.08 bitrate=  72.7kbits/s speed=0.0157x    frame=   81 fps= 14 q=43.0 size=       1kB time=00:00:00.16 bitrate=  36.6kbits/s speed=0.0276x    frame=   84 fps= 13 q=44.0 size=       1kB time=00:00:00.22 bitrate=  26.6kbits/s speed=0.0348x    frame=   88 fps= 12 q=42.0 size=       1kB time=00:00:00.30 bitrate=  19.6kbits/s speed=0.0421x    frame=   94 fps= 12 q=41.0 size=       1kB time=00:00:00.42 bitrate=  14.0kbits/s speed=0.0521x    frame=   98 fps= 11 q=40.0 size=       1kB time=00:00:00.50 bitrate=  11.8kbits/s speed=0.0573x    frame=  100 fps= 11 q=40.0 size=       1kB time=00:00:00.54 bitrate=  10.9kbits/s speed=0.0582x    frame=  104 fps= 10 q=39.0 size=       1kB time=00:00:00.62 bitrate=   9.5kbits/s speed=0.0621x    frame=  107 fps= 10 q=39.0 size=       1kB time=00:00:00.68 bitrate=   8.6kbits/s speed=0.0645x    frame=  111 fps=9.8 q=39.0 size=       1kB time=00:00:00.76 bitrate=   7.7kbits/s speed=0.0673x    frame=  115 fps=9.6 q=38.0 size=       1kB time=00:00:00.84 bitrate=   7.0kbits/s speed=0.07x    frame=  118 fps=9.3 q=38.0 size=       1kB time=00:00:00.90 bitrate=   6.5kbits/s speed=0.0709x    frame=  122 fps=9.1 q=38.0 size=       1kB time=00:00:00.98 bitrate=   6.0kbits/s speed=0.073x    frame=  126 fps=8.7 q=38.0 size=       1kB time=00:00:01.06 bitrate=   5.5kbits/s speed=0.0736x    frame=  131 fps=8.7 q=38.0 size=       1kB time=00:00:01.16 bitrate=   5.1kbits/s speed=0.0772x    frame=  134 fps=8.4 q=38.0 size=       1kB time=00:00:01.22 bitrate=   4.8kbits/s speed=0.0768x    frame=  138 fps=8.2 q=38.0 size=       1kB time=00:00:01.30 bitrate=   4.5kbits/s speed=0.0773x    frame=  142 fps=8.2 q=38.0 size=       1kB time=00:00:01.38 bitrate=   4.3kbits/s speed=0.0793x    frame=  146 fps=7.9 q=38.0 size=       1kB time=00:00:01.46 bitrate=   4.0kbits/s speed=0.0788x    frame=  150 fps=7.9 q=38.0 size=       1kB time=00:00:01.54 bitrate=   3.8kbits/s speed=0.0808x    frame=  154 fps=7.6 q=37.0 size=       1kB time=00:00:01.62 bitrate=   3.6kbits/s speed=0.0802x    frame=  159 fps=7.7 q=37.0 size=       1kB time=00:00:01.72 bitrate=   3.4kbits/s speed=0.0829x    frame=  160 fps=7.5 q=37.0 size=       1kB time=00:00:01.74 bitrate=   3.4kbits/s speed=0.0817x    frame=  163 fps=7.4 q=37.0 size=       1kB time=00:00:01.80 bitrate=   3.3kbits/s speed=0.0815x    frame=  167 fps=7.4 q=37.0 size=       1kB time=00:00:01.88 bitrate=   3.1kbits/s speed=0.0832x    frame=  169 fps=7.2 q=37.0 size=       1kB time=00:00:01.92 bitrate=   3.1kbits/s speed=0.0821x    frame=  173 fps=7.2 q=37.0 size=       1kB time=00:00:02.00 bitrate=   2.9kbits/s speed=0.0831x    frame=  177 fps=7.1 q=37.0 size=       1kB time=00:00:02.08 bitrate=   2.8kbits/s speed=0.0838x    frame=  180 fps=7.1 q=37.0 size=       1kB time=00:00:02.14 bitrate=   2.8kbits/s speed=0.0839x    frame=  184 fps=7.0 q=37.0 size=       1kB time=00:00:02.22 bitrate=   2.7kbits/s speed=0.0843x    frame=  188 fps=6.9 q=37.0 size=       1kB time=00:00:02.30 bitrate=   2.6kbits/s speed=0.0843x    frame=  192 fps=6.9 q=37.0 size=       1kB time=00:00:02.38 bitrate=   2.5kbits/s speed=0.0854x    frame=  196 fps=6.8 q=37.0 size=       1kB time=00:00:02.46 bitrate=   2.4kbits/s speed=0.0851x    frame=  199 fps=6.7 q=37.0 size=       1kB time=00:00:02.52 bitrate=   2.3kbits/s speed=0.085x    frame=  203 fps=6.7 q=37.0 size=       1kB time=00:00:02.60 bitrate=   2.3kbits/s speed=0.0853x    frame=  207 fps=6.6 q=37.0 size=       1kB time=00:00:02.68 bitrate=   2.2kbits/s speed=0.0856x    frame=  211 fps=6.6 q=37.0 size=       1kB time=00:00:02.76 bitrate=   2.1kbits/s speed=0.086x    frame=  215 fps=6.5 q=37.0 size=       1kB time=00:00:02.84 bitrate=   2.1kbits/s speed=0.086x    frame=  219 fps=6.5 q=37.0 size=       1kB time=00:00:02.92 bitrate=   2.0kbits/s speed=0.0868x    frame=  221 fps=6.5 q=37.0 size=       1kB time=00:00:02.96 bitrate=   2.0kbits/s speed=0.0866x    frame=  223 fps=6.4 q=37.0 size=       1kB time=00:00:03.00 bitrate=   2.0kbits/s speed=0.0864x    frame=  227 fps=6.4 q=37.0 size=       1kB time=00:00:03.08 bitrate=   1.9kbits/s speed=0.0865x    frame=  231 fps=6.3 q=37.0 size=       1kB time=00:00:03.16 bitrate=   1.9kbits/s speed=0.0869x    frame=  235 fps=6.3 q=37.0 size=       1kB time=00:00:03.24 bitrate=   1.8kbits/s speed=0.087x    frame=  239 fps=6.3 q=37.0 size=       1kB time=00:00:03.32 bitrate=   1.8kbits/s speed=0.0871x    frame=  243 fps=6.3 q=37.0 size=       1kB time=00:00:03.40 bitrate=   1.7kbits/s speed=0.0876x    frame=  247 fps=6.2 q=37.0 size=       1kB time=00:00:03.48 bitrate=   1.7kbits/s speed=0.0877x    frame=  250 fps=6.2 q=37.0 size=       1kB time=00:00:03.54 bitrate=   1.7kbits/s speed=0.0878x    frame=  254 fps=6.2 q=37.0 size=       1kB time=00:00:03.62 bitrate=   1.6kbits/s speed=0.0877x    frame=  258 fps=6.1 q=36.0 size=       1kB time=00:00:03.70 bitrate=   1.6kbits/s speed=0.0878x    frame=  262 fps=6.1 q=36.0 size=       1kB time=00:00:03.78 bitrate=   1.6kbits/s speed=0.0881x    frame=  266 fps=6.1 q=36.0 size=       1kB time=00:00:03.86 bitrate=   1.5kbits/s speed=0.0886x    frame=  270 fps=6.0 q=36.0 size=       1kB time=00:00:03.94 bitrate=   1.5kbits/s speed=0.0882x    frame=  274 fps=6.1 q=36.0 size=       1kB time=00:00:04.02 bitrate=   1.5kbits/s speed=0.0889x    frame=  278 fps=6.0 q=36.0 size=       1kB time=00:00:04.10 bitrate=   1.4kbits/s speed=0.0885x    frame=  281 fps=6.0 q=36.0 size=       1kB time=00:00:04.16 bitrate=   1.4kbits/s speed=0.0888x    frame=  285 fps=6.0 q=36.0 size=       1kB time=00:00:04.24 bitrate=   1.4kbits/s speed=0.0889x    frame=  288 fps=6.0 q=36.0 size=       1kB time=00:00:04.30 bitrate=   1.4kbits/s speed=0.0892x    frame=  291 fps=5.9 q=36.0 size=       1kB time=00:00:04.36 bitrate=   1.4kbits/s speed=0.0888x    frame=  295 fps=5.9 q=36.0 size=       1kB time=00:00:04.44 bitrate=   1.3kbits/s speed=0.0894x    frame=  297 fps=5.9 q=36.0 size=       1kB time=00:00:04.48 bitrate=   1.3kbits/s speed=0.0889x    frame=  303 fps=5.9 q=36.0 size=       1kB time=00:00:04.60 bitrate=   1.3kbits/s speed=0.0892x    frame=  307 fps=5.9 q=36.0 size=       1kB time=00:00:04.68 bitrate=   1.3kbits/s speed=0.0897x    frame=  309 fps=5.8 q=36.0 size=       1kB time=00:00:04.72 bitrate=   1.2kbits/s speed=0.0892x    frame=  313 fps=5.8 q=36.0 size=       1kB time=00:00:04.80 bitrate=   1.2kbits/s speed=0.0897x    frame=  315 fps=5.8 q=33.0 size=       1kB time=00:00:04.84 bitrate=   1.2kbits/s speed=0.0895x    frame=  319 fps=5.8 q=37.0 size=       1kB time=00:00:04.92 bitrate=   1.2kbits/s speed=0.0898x    frame=  323 fps=5.8 q=37.0 size=    2753kB time=00:00:05.00 bitrate=4508.9kbits/s speed=0.0903x    frame=  327 fps=5.8 q=37.0 size=    2753kB time=00:00:05.08 bitrate=4437.9kbits/s speed=0.0905x    frame=  332 fps=5.8 q=37.0 size=    2753kB time=00:00:05.18 bitrate=4352.3kbits/s speed=0.0913x    frame=  333 fps=5.8 q=37.0 size=    2753kB time=00:00:05.20 bitrate=4335.5kbits/s speed=0.0907x    frame=  336 fps=5.8 q=37.0 size=    2753kB time=00:00:05.26 bitrate=4286.1kbits/s speed=0.0905x    frame=  339 fps=5.8 q=37.0 size=    2753kB time=00:00:05.32 bitrate=4237.8kbits/s speed=0.0907x    frame=  343 fps=5.7 q=37.0 size=    2753kB time=00:00:05.40 bitrate=4175.0kbits/s speed=0.0904x    frame=  348 fps=5.8 q=37.0 size=    2753kB time=00:00:05.50 bitrate=4099.1kbits/s speed=0.0912x    frame=  350 fps=5.7 q=37.0 size=    2753kB time=00:00:05.54 bitrate=4069.5kbits/s speed=0.0904x    frame=  354 fps=5.7 q=37.0 size=    2753kB time=00:00:05.62 bitrate=4011.6kbits/s speed=0.0907x    frame=  358 fps=5.7 q=37.0 size=    2753kB time=00:00:05.70 bitrate=3955.3kbits/s speed=0.091x    frame=  360 fps=5.7 q=37.0 size=    2753kB time=00:00:05.74 bitrate=3927.7kbits/s speed=0.0908x    frame=  364 fps=5.7 q=37.0 size=    2753kB time=00:00:05.82 bitrate=3873.8kbits/s speed=0.091x    frame=  367 fps=5.7 q=37.0 size=    2753kB time=00:00:05.88 bitrate=3834.2kbits/s speed=0.0912x    frame=  368 fps=5.7 q=37.0 size=    2753kB time=00:00:05.90 bitrate=3821.2kbits/s speed=0.0907x    frame=  373 fps=5.7 q=37.0 size=    2753kB time=00:00:06.00 bitrate=3757.6kbits/s speed=0.0913x    frame=  375 fps=5.6 q=37.0 size=    2753kB time=00:00:06.04 bitrate=3732.7kbits/s speed=0.0909x    frame=  379 fps=5.6 q=37.0 size=    2753kB time=00:00:06.12 bitrate=3683.9kbits/s speed=0.0909x    frame=  383 fps=5.6 q=37.0 size=    2753kB time=00:00:06.20 bitrate=3636.4kbits/s speed=0.091x    frame=  387 fps=5.6 q=37.0 size=    2753kB time=00:00:06.28 bitrate=3590.1kbits/s speed=0.0908x    frame=  391 fps=5.6 q=37.0 size=    2753kB time=00:00:06.36 bitrate=3544.9kbits/s speed=0.0911x    frame=  393 fps=5.6 q=37.0 size=    2753kB time=00:00:06.40 bitrate=3522.8kbits/s speed=0.0908x    frame=  397 fps=5.6 q=37.0 size=    2753kB time=00:00:06.48 bitrate=3479.3kbits/s speed=0.0911x    frame=  399 fps=5.6 q=37.0 size=    2753kB time=00:00:06.52 bitrate=3457.9kbits/s speed=0.0909x    frame=  403 fps=5.6 q=37.0 size=    2753kB time=00:00:06.60 bitrate=3416.0kbits/s speed=0.0912x    frame=  405 fps=5.6 q=37.0 size=    2753kB time=00:00:06.64 bitrate=3395.4kbits/s speed=0.0911x    frame=  407 fps=5.5 q=37.0 size=    2753kB time=00:00:06.68 bitrate=3375.1kbits/s speed=0.0909x    frame=  409 fps=5.5 q=37.0 size=    2753kB time=00:00:06.72 bitrate=3355.0kbits/s speed=0.0909x    frame=  412 fps=5.5 q=37.0 size=    2753kB time=00:00:06.78 bitrate=3325.3kbits/s speed=0.0909x    frame=  415 fps=5.5 q=37.0 size=    2753kB time=00:00:06.84 bitrate=3296.2kbits/s speed=0.091x    frame=  418 fps=5.5 q=37.0 size=    2753kB time=00:00:06.90 bitrate=3267.5kbits/s speed=0.0908x    frame=  422 fps=5.5 q=37.0 size=    2753kB time=00:00:06.98 bitrate=3230.1kbits/s speed=0.0907x    frame=  426 fps=5.5 q=37.0 size=    2753kB time=00:00:07.06 bitrate=3193.5kbits/s speed=0.0908x    frame=  430 fps=5.5 q=37.0 size=    2753kB time=00:00:07.14 bitrate=3157.7kbits/s speed=0.0906x    frame=  434 fps=5.5 q=37.0 size=    2753kB time=00:00:07.22 bitrate=3122.7kbits/s speed=0.0907x    frame=  438 fps=5.4 q=37.0 size=    2753kB time=00:00:07.30 bitrate=3088.5kbits/s speed=0.0907x    frame=  442 fps=5.4 q=37.0 size=    2753kB time=00:00:07.38 bitrate=3055.0kbits/s speed=0.0907x    frame=  446 fps=5.4 q=37.0 size=    2753kB time=00:00:07.46 bitrate=3022.3kbits/s speed=0.0908x    frame=  449 fps=5.4 q=37.0 size=    2753kB time=00:00:07.52 bitrate=2998.2kbits/s speed=0.0907x    frame=  453 fps=5.4 q=37.0 size=    2753kB time=00:00:07.60 bitrate=2966.6kbits/s speed=0.0905x    frame=  457 fps=5.4 q=37.0 size=    2753kB time=00:00:07.68 bitrate=2935.7kbits/s speed=0.0905x    frame=  463 fps=5.4 q=37.0 size=    2753kB time=00:00:07.80 bitrate=2890.5kbits/s speed=0.0908x    frame=  467 fps=5.4 q=37.0 size=    2753kB time=00:00:07.88 bitrate=2861.2kbits/s speed=0.091x    frame=  470 fps=5.4 q=37.0 size=    2753kB time=00:00:07.94 bitrate=2839.6kbits/s speed=0.0911x    frame=  471 fps=5.4 q=37.0 size=    2753kB time=00:00:07.96 bitrate=2832.5kbits/s speed=0.0906x    frame=  475 fps=5.3 q=37.0 size=    2753kB time=00:00:08.04 bitrate=2804.3kbits/s speed=0.0905x    frame=  479 fps=5.4 q=37.0 size=    2753kB time=00:00:08.12 bitrate=2776.6kbits/s speed=0.0909x    frame=  483 fps=5.3 q=37.0 size=    2753kB time=00:00:08.20 bitrate=2749.6kbits/s speed=0.0906x    frame=  487 fps=5.3 q=37.0 size=    2753kB time=00:00:08.28 bitrate=2723.0kbits/s speed=0.091x    frame=  489 fps=5.3 q=37.0 size=    2753kB time=00:00:08.32 bitrate=2709.9kbits/s speed=0.0907x    frame=  492 fps=5.3 q=37.0 size=    2753kB time=00:00:08.38 bitrate=2690.5kbits/s speed=0.0907x    frame=  495 fps=5.3 q=37.0 size=    2753kB time=00:00:08.44 bitrate=2671.4kbits/s speed=0.0908x    frame=  498 fps=5.3 q=37.0 size=    2753kB time=00:00:08.50 bitrate=2652.5kbits/s speed=0.0907x    frame=  500 fps=4.7 q=-1.0 Lsize=    6131kB time=00:00:09.94 bitrate=5052.5kbits/s speed=0.0925x    
video:6127kB audio:0kB subtitle:0kB other streams:0kB global headers:0kB muxing overhead: 0.071439%
bench: utime=412.584s
bench: maxrss=2607984kB
[libx264 @ 0x343d120] frame I:3     Avg QP:33.89  size:203369
[libx264 @ 0x343d120] frame P:138   Avg QP:35.44  size: 19697
[libx264 @ 0x343d120] frame B:359   Avg QP:37.64  size:  8203
[libx264 @ 0x343d120] consecutive B-frames:  1.0%  2.0% 23.4% 73.6%
[libx264 @ 0x343d120] mb I  I16..4: 42.5% 51.5%  6.0%
[libx264 @ 0x343d120] mb P  I16..4:  0.0%  0.0%  0.0%  P16..4: 21.7%  0.8%  3.0%  0.0%  0.0%    skip:74.4%
[libx264 @ 0x343d120] mb B  I16..4:  0.0%  0.0%  0.0%  B16..8: 34.5%  0.1%  0.0%  direct: 0.0%  skip:65.4%  L0:46.8% L1:53.2% BI: 0.0%
[libx264 @ 0x343d120] final ratefactor: 29.40
[libx264 @ 0x343d120] 8x8 transform intra:51.5% inter:81.6%
[libx264 @ 0x343d120] direct mvs  spatial:99.2% temporal:0.8%
[libx264 @ 0x343d120] coded y,uvDC,uvAC intra: 54.9% 45.2% 20.3% inter: 1.0% 1.3% 0.0%
[libx264 @ 0x343d120] i16 v,h,dc,p:  8% 20%  4% 68%
[libx264 @ 0x343d120] i8 v,h,dc,ddl,ddr,vr,hd,vl,hu:  4%  6%  5% 13% 20% 13% 20%  8% 12%
[libx264 @ 0x343d120] i4 v,h,dc,ddl,ddr,vr,hd,vl,hu:  3%  4%  2% 14% 19% 13% 21%  9% 16%
[libx264 @ 0x343d120] i8c dc,h,v,p: 13% 62% 15% 10%
[libx264 @ 0x343d120] Weighted P-Frames: Y:0.7% UV:0.0%
[libx264 @ 0x343d120] ref P L0: 66.0% 23.2%  7.0%  1.0%  1.0%  0.7%  0.7%  0.3%  0.0%
[libx264 @ 0x343d120] ref B L0: 87.5%  7.2%  3.2%  0.7%  0.5%  0.6%  0.2%
[libx264 @ 0x343d120] ref B L1: 97.9%  2.1%
[libx264 @ 0x343d120] kb/s:5018.56
